<?xml version="1.0" encoding="UTF-8"?>
<svg width="538px" height="110px" viewBox="0 0 538 110" version="1.1" xmlns="http://www.w3.org/2000/svg" xmlns:xlink="http://www.w3.org/1999/xlink">
    <!-- Generator: Sketch 63.1 (92452) - https://sketch.com -->
    <title>nfs-510-logo-white</title>
    <desc>Created with Sketch.</desc>
    <defs>
        <polygon id="path-1" points="1.4e-05 0 529.11712 0 529.11712 42 1.4e-05 42"></polygon>
    </defs>
    <g id="nfs-510-logo-white" stroke="none" stroke-width="1" fill="none" fill-rule="evenodd">
        <g id="Group-3" transform="translate(4.000000, 34.000000)">
            <mask id="mask-2" fill="white">
                <use xlink:href="#path-1"></use>
            </mask>
            <g id="Clip-2"></g>
            <path d="M443.616894,0.00028 L488.241194,0.00028 L475.116334,10.49972 L451.491754,10.49972 L448.866754,15.74986 L469.866474,15.74986 L456.741614,26.24874 L443.616894,26.24874 L440.991894,31.49846 L469.866474,31.49846 L464.616474,41.99804 L422.617174,41.99804 L443.616894,0.00028 Z M396.368014,0.00028 L440.992314,0.00028 L427.867454,10.49972 L404.242874,10.49972 L401.617874,15.74986 L422.617594,15.74986 L409.492874,26.24874 L396.368014,26.24874 L393.743014,31.49846 L422.617594,31.49846 L417.367734,41.99804 L375.368294,41.99804 L396.368014,0.00028 Z M115.497774,0.00056 L160.122074,0.00056 L146.997354,10.5 L123.372634,10.5 L120.747774,15.75014 L141.747354,15.75014 L128.622634,26.24916 L115.497774,26.24916 L112.872774,31.49888 L141.747354,31.49888 L136.497494,41.99846 L94.498054,41.99846 L115.497774,0.00056 Z M524.895154,41.99818 L526.797194,38.19662 L524.528494,40.69856 L523.877354,40.69856 L524.108074,38.2403 L522.229134,41.99818 L521.055094,41.99818 L524.102894,35.90244 L525.161714,35.90244 L525.010514,39.10662 L528.048094,35.90244 L529.117134,35.90244 L526.069054,41.99818 L524.895154,41.99818 Z M520.911454,36.7689 L518.294294,41.99818 L517.117734,41.99818 L519.734894,36.7689 L518.486514,36.7689 L518.917154,35.90244 L522.600834,35.90244 L522.170194,36.7689 L520.911454,36.7689 Z M271.683034,28.875 L266.433174,28.875 L270.370534,21.00014 L275.620394,21.00014 L271.683034,28.875 Z M282.373154,15.75126 L262.495814,15.75042 L249.371094,41.99874 L259.870954,41.99874 L265.120674,31.49986 L265.120674,41.99874 L275.620394,41.99874 L275.620394,31.49944 L280.870394,31.49944 L285.894714,21.4494 C287.203574,18.83154 285.299854,15.7514 282.373154,15.75126 L282.373154,15.75126 Z M219.182334,26.25 L212.619974,31.4993 L207.371794,31.4993 L202.120254,41.99874 L191.620534,41.99874 L204.745114,15.75014 L229.681914,15.75014 L223.119554,20.99986 L212.619974,20.99986 L209.994974,26.24958 L219.182334,26.25 Z M238.871374,20.99986 L244.121234,20.99986 L236.246374,36.74902 L230.996374,36.74902 L238.871374,20.99986 Z M224.242634,41.99874 L239.254414,41.99874 C242.237114,41.99874 244.963894,40.31356 246.297814,37.64572 L254.396814,21.44856 C255.705814,18.83056 253.802094,15.75014 250.875114,15.75014 L235.863194,15.75014 C232.880494,15.75014 230.153854,17.43532 228.819794,20.10316 L220.720934,36.30046 C219.411934,38.91846 221.315654,41.99874 224.242634,41.99874 L224.242634,41.99874 Z M331.245754,25.24788 L326.497514,34.7438 C324.274174,39.1902 319.729634,41.99874 314.758374,41.99874 L278.245394,41.99874 L291.370254,31.49944 L314.994834,31.49944 L317.619834,26.24958 L299.363414,26.24958 C294.484974,26.24958 291.312154,21.11578 293.493774,16.7524 L298.242294,7.25522 C300.465634,2.80868 305.010454,0 309.981994,0 L346.494414,0.00098 L333.369694,10.50056 L309.744974,10.50056 L307.119974,15.75056 L325.376114,15.75056 C330.254694,15.75056 333.427514,20.8845 331.245754,25.24788 L331.245754,25.24788 Z M68.248894,0.00056 L112.873194,0.00056 L99.748474,10.5 L76.123754,10.5 L73.498894,15.75014 L94.498474,15.75014 L81.373754,26.24916 L68.248894,26.24916 L65.624034,31.49888 L94.498474,31.49888 L89.248614,41.99846 L47.249314,41.99846 L68.248894,0.00056 Z M367.494134,21.00042 L351.744414,21.00042 L356.994274,10.50098 L372.743994,10.50098 L367.494134,21.00042 Z M378.996254,24.24492 L386.369914,9.49872 C388.551674,5.13548 385.378994,0.00154 380.500554,0.0014 L349.119414,0.00028 L328.119694,41.99916 L341.244554,41.99916 L346.494414,31.49986 L367.257254,31.49986 C372.228374,31.49986 376.772914,28.69132 378.996254,24.24492 L378.996254,24.24492 Z M26.249594,15.75014 L13.124734,41.99846 L1.4e-05,41.99846 L20.999734,0.00056 L34.124454,0.00056 L36.749454,26.25 L49.874174,0.00056 L62.999034,0.00056 L41.999314,41.99846 L28.874594,41.99958 L26.249594,15.75014 Z M498.740214,10.50168 L514.490074,10.50168 L503.990214,31.50042 L488.240494,31.50042 L498.740214,10.50168 Z M469.865774,42 L503.752214,42 C508.723474,42 513.268014,39.19146 515.491214,34.74506 L528.114454,9.49942 C530.296214,5.13604 527.123254,0.00224 522.244954,0.00224 L490.865354,0.00224 L469.865774,42 Z M170.622354,10.5 L186.372074,10.5 L175.872354,31.49888 L160.122494,31.49888 L170.622354,10.5 Z M141.747774,41.99846 L175.634214,41.99846 C180.605474,41.99846 185.150014,39.18978 187.373214,34.74338 L199.996454,9.49774 C202.178074,5.1345 199.005254,0.00056 194.126954,0.00056 L162.747494,0.00056 L141.747774,41.99846 Z" id="Fill-1" fill="#FFFFFF" mask="url(#mask-2)"></path>
        </g>
    </g>
</svg>